# xmcd
#
# Track frame offsets: 
#        150
#        12391
#        31399
#        52552
#        63151
#        78963
#        96658
#
# Disc length: 1676 seconds
#
# Revision: 0
# Processed by: cddbd v1.5.2PL0 Copyright (c) Steve Scherf et al.
# Submitted via: ExactAudioCopy v1.0b1
#
DISCID=4b068a07
DTITLE=雨先案内人 - おいしい音楽
DYEAR=2011
DGENRE=Pops
TTITLE0=ドレミファソラシド
TTITLE1=おひさま
TTITLE2=う～にゃ
TTITLE3=人間やめたい
TTITLE4=楽しく死のう
TTITLE5=あるこうぜ
TTITLE6=友達をつくろう
EXTD=
EXTT0=
EXTT1=
EXTT2=
EXTT3=
EXTT4=
EXTT5=
EXTT6=
PLAYORDER=
